HIERARCHY
ROOT Hips
{
	OFFSET 0.000000 0.000000 0.000000
	CHANNELS 6 Xposition Yposition Zposition Zrotation Yrotation Xrotation 
	JOINT LowerBack
	{
		OFFSET 0.000000 0.000000 0.000000
		CHANNELS 3 Zrotation Yrotation Xrotation
		JOINT Spine
		{
			OFFSET 0.028270 2.035590 -0.193380
			CHANNELS 3 Zrotation Yrotation Xrotation
			JOINT Spine1
			{
				OFFSET 0.056720 2.048850 -0.042750
				CHANNELS 3 Zrotation Yrotation Xrotation
				JOINT Neck
				{
					OFFSET 0.000000 0.000000 0.000000
					CHANNELS 3 Zrotation Yrotation Xrotation
					JOINT Neck1
					{
						OFFSET -0.054170 1.746240 0.172020
						CHANNELS 3 Zrotation Yrotation Xrotation
						JOINT Head
						{
							OFFSET 0.104070 1.761360 -0.123970
							CHANNELS 3 Zrotation Yrotation Xrotation
							End Site
							{
								OFFSET 0.000000 0.000000 0.000000
							}
						}
					}
				}
				JOINT LeftShoulder
				{
					OFFSET 0.000000 0.000000 0.000000
					CHANNELS 3 Zrotation Yrotation Xrotation
					JOINT LeftArm
					{
						OFFSET 3.362410 1.200890 -0.311210
						CHANNELS 3 Zrotation Yrotation Xrotation
						JOINT LeftForeArm
						{
							OFFSET 4.983000 -0.000000 -0.000000
							CHANNELS 3 Zrotation Yrotation Xrotation
							JOINT LeftHand
							{
								OFFSET 3.483560 -0.000000 -0.000000
								CHANNELS 3 Zrotation Yrotation Xrotation
								JOINT LeftFingerBase
								{
									OFFSET 0.000000 0.000000 0.000000
									CHANNELS 3 Zrotation Yrotation Xrotation
									JOINT LeftHandIndex1
									{
										OFFSET 0.715260 -0.000000 -0.000000
										CHANNELS 3 Zrotation Yrotation Xrotation
										End Site
										{
											OFFSET 0.000000 0.000000 0.000000
										}
									}
								}
								JOINT LThumb
								{
									OFFSET 0.000000 0.000000 0.000000
									CHANNELS 3 Zrotation Yrotation Xrotation
									End Site
									{
										OFFSET 0.000000 0.000000 0.000000
									}
								}
							}
						}
					}
				}
				JOINT RightShoulder
				{
					OFFSET 0.000000 0.000000 0.000000
					CHANNELS 3 Zrotation Yrotation Xrotation
					JOINT RightArm
					{
						OFFSET -3.136600 1.374050 -0.404650
						CHANNELS 3 Zrotation Yrotation Xrotation
						JOINT RightForeArm
						{
							OFFSET -5.241900 -0.000000 -0.000000
							CHANNELS 3 Zrotation Yrotation Xrotation
							JOINT RightHand
							{
								OFFSET -3.444170 -0.000000 -0.000000
								CHANNELS 3 Zrotation Yrotation Xrotation
								JOINT RightFingerBase
								{
									OFFSET 0.000000 0.000000 0.000000
									CHANNELS 3 Zrotation Yrotation Xrotation
									JOINT RightHandIndex1
									{
										OFFSET -0.622530 -0.000000 -0.000000
										CHANNELS 3 Zrotation Yrotation Xrotation
										End Site
										{
											OFFSET 0.000000 0.000000 0.000000
										}
									}
								}
								JOINT RThumb
								{
									OFFSET 0.000000 0.000000 0.000000
									CHANNELS 3 Zrotation Yrotation Xrotation
									End Site
									{
										OFFSET 0.000000 0.000000 0.000000
									}
								}
							}
						}
					}
				}
			}
		}
	}
}
}
MOTION
Frames: 9
Frame Time: 0.008333
4.443423 17.385599 1.571370 179.012865 -60.630147 -166.442739 0.691309 -3.847958 -3.558121 -0.260915 -3.964282 -3.209010 -5.826429 -3.792109 -0.134135 9.104753 -16.425752 -2.503463 -2.861944 -0.285154 1.448117 0.000000 0.000000 0.000000 18.696589 1.899895 -5.305615 -64.965566 -43.954450 -13.248701 177.744779 -52.367502 179.774292 14.182128 -1.992758 -0.373496 -0.246813 0.984590 -0.000000 0.000000 0.000000 0.000000 0.000000 0.000000 0.000000 0.633852 -16.979492 -3.091447 83.173567 31.135861 30.487767 -178.808784 61.330186 179.787541 -18.057756 10.255757 -1.822240 0.392737 -0.943618 -0.000000 0.000000 0.000000 0.000000 0.000000 0.000000 0.000000 
4.441551 17.384397 1.584149 178.702929 -61.442186 -165.990644 0.678565 -3.877312 -3.530149 -0.272914 -3.992907 -3.196004 -5.885108 -3.817502 -0.113825 9.199309 -16.510303 -2.603550 -2.853866 -0.283142 1.419496 0.000000 0.000000 0.000000 18.640052 1.903777 -5.356883 -65.015064 -44.582616 -12.855183 177.761468 -52.698211 179.774081 14.163830 -2.001326 -0.374293 -0.244184 0.986508 -0.000000 0.000000 0.000000 0.000000 0.000000 0.000000 0.000000 0.763048 -17.075618 -2.981935 83.019975 30.486190 30.362262 -178.822210 61.423286 179.788677 -18.037428 10.289469 -1.825105 0.391227 -0.941079 -0.000000 0.000000 0.000000 0.000000 0.000000 0.000000 0.000000 
4.438933 17.382971 1.596880 178.349485 -62.353688 -165.487250 0.667782 -3.903661 -3.511281 -0.285595 -4.018962 -3.184714 -5.949513 -3.839977 -0.095177 9.308389 -16.599735 -2.705809 -2.846906 -0.281162 1.390348 0.000000 0.000000 0.000000 18.573613 1.896916 -5.417138 -65.111840 -45.282875 -12.387722 177.779015 -53.066473 179.773577 14.155982 -2.030001 -0.377983 -0.241657 0.989334 -0.000000 0.000000 0.000000 0.000000 0.000000 0.000000 0.000000 0.915374 -17.176562 -2.862912 82.825546 29.781321 30.197851 -178.836675 61.500240 179.789948 -18.011448 10.309658 -1.825068 0.389713 -0.938040 -0.000000 0.000000 0.000000 0.000000 0.000000 0.000000 0.000000 
4.435645 17.381332 1.609631 177.941631 -63.373899 -164.924549 0.660144 -3.926776 -3.500120 -0.298707 -4.042254 -3.175215 -6.019525 -3.859341 -0.079803 9.431976 -16.695156 -2.810427 -2.841613 -0.279249 1.360616 0.000000 0.000000 0.000000 18.498533 1.875898 -5.486307 -65.266167 -46.054141 -11.836203 177.797742 -53.474111 179.772764 14.158098 -2.083116 -0.385168 -0.239205 0.993234 -0.000000 0.000000 0.000000 0.000000 0.000000 0.000000 0.000000 1.094083 -17.281845 -2.734212 82.591232 29.022132 29.995863 -178.852731 61.562342 179.791362 -17.978061 10.318243 -1.822328 0.388144 -0.934583 -0.000000 0.000000 0.000000 0.000000 0.000000 0.000000 0.000000 
4.431704 17.379478 1.622496 177.465472 -64.510590 -164.290753 0.657637 -3.946761 -3.494985 -0.311666 -4.062977 -3.167527 -6.094138 -3.875852 -0.068898 9.567301 -16.798192 -2.918519 -2.838339 -0.277410 1.329983 0.000000 0.000000 0.000000 18.416729 1.839809 -5.563958 -65.490154 -46.891065 -11.190841 177.818098 -53.918902 179.771672 14.167732 -2.162124 -0.395944 -0.236772 0.998255 -0.000000 0.000000 0.000000 0.000000 0.000000 0.000000 0.000000 1.299688 -17.391158 -2.596349 82.322282 28.209212 29.759864 -178.870698 61.618087 179.792920 -17.936294 10.319164 -1.817484 0.386385 -0.930771 -0.000000 0.000000 0.000000 0.000000 0.000000 0.000000 0.000000 
4.427030 17.377422 1.635550 176.904012 -65.770253 -163.569024 0.662470 -3.964279 -3.494658 -0.323675 -4.081895 -3.161717 -6.171749 -3.890404 -0.063182 9.709529 -16.910474 -3.031895 -2.837021 -0.275620 1.297939 0.000000 0.000000 0.000000 18.328770 1.790614 -5.649036 -65.796401 -47.785929 -10.441864 177.840849 -54.398545 179.770364 14.181457 -2.265598 -0.410114 -0.234287 1.004324 -0.000000 0.000000 0.000000 0.000000 0.000000 0.000000 0.000000 1.529763 -17.503857 -2.450618 82.027240 27.344109 29.494332 -178.890497 61.681608 179.794615 -17.886138 10.317006 -1.811138 0.384237 -0.926613 -0.000000 0.000000 0.000000 0.000000 0.000000 0.000000 0.000000 
4.421678 17.375180 1.648774 176.228881 -67.158561 -162.732705 0.678157 -3.980367 -3.499244 -0.333501 -4.100271 -3.158052 -6.250141 -3.904452 -0.062668 9.851355 -17.032840 -3.152755 -2.837091 -0.273813 1.263890 0.000000 0.000000 0.000000 18.234475 1.734251 -5.740149 -66.198175 -48.728356 -9.578418 177.867006 -54.907647 179.768927 14.195321 -2.388542 -0.426877 -0.231715 1.011232 -0.000000 0.000000 0.000000 0.000000 0.000000 0.000000 0.000000 1.776254 -17.618536 -2.299415 81.718622 26.425976 29.201665 -178.910857 61.765899 179.796410 -17.828645 10.318016 -1.804390 0.381436 -0.922164 -0.000000 0.000000 0.000000 0.000000 0.000000 0.000000 0.000000 
4.415743 17.372765 1.662176 175.393918 -68.678506 -161.739412 0.703861 -3.996366 -3.505951 -0.340819 -4.119262 -3.156031 -6.327330 -3.919337 -0.066842 9.986889 -17.167533 -3.284057 -2.838038 -0.271914 1.226982 0.000000 0.000000 0.000000 18.133553 1.679778 -5.836261 -66.709756 -49.710750 -8.587591 177.897428 -55.445198 179.767495 14.203688 -2.523567 -0.445136 -0.228910 1.018661 -0.000000 0.000000 0.000000 0.000000 0.000000 0.000000 0.000000 2.034813 -17.735039 -2.145196 81.408332 25.456308 28.882014 -178.930937 61.888681 179.798259 -17.767302 10.329469 -1.798941 0.377769 -0.917455 -0.000000 0.000000 0.000000 0.000000 0.000000 0.000000 0.000000 
4.408946 17.370155 1.675722 174.341141 -70.333872 -160.527802 0.744830 -4.013187 -3.519121 -0.344106 -4.140228 -3.157301 -6.401830 -3.936707 -0.077364 10.105270 -17.306489 -3.425335 -2.838182 -0.269820 1.187405 0.000000 0.000000 0.000000 18.021727 1.633784 -5.934744 -67.343601 -50.718730 -7.456774 177.933884 -56.009237 179.766154 14.205170 -2.660962 -0.463390 -0.225987 1.026220 -0.000000 0.000000 0.000000 0.000000 0.000000 0.000000 0.000000 2.285061 -17.841301 -1.990498 81.110908 24.415295 28.521870 -178.946187 62.058634 179.800093 -17.701972 10.354814 -1.794992 0.372668 -0.912421 -0.000000 0.000000 0.000000 0.000000 0.000000 0.000000 0.000000 
